<svg xmlns="http://www.w3.org/2000/svg" viewBox="0 0 256 256" role="img" aria-label="Production Overview">
  <defs>
    <linearGradient id="bg" x1="36" y1="24" x2="220" y2="232" gradientUnits="userSpaceOnUse">
      <stop stop-color="#67e8f9"/>
      <stop offset="0.46" stop-color="#06b6d4"/>
      <stop offset="1" stop-color="#0e7490"/>
    </linearGradient>
    <linearGradient id="line" x1="52" y1="190" x2="202" y2="88" gradientUnits="userSpaceOnUse">
      <stop stop-color="#5eead4"/>
      <stop offset="1" stop-color="#ecfeff"/>
    </linearGradient>
    <filter id="shadow" x="-20%" y="-20%" width="140%" height="140%">
      <feDropShadow dx="0" dy="14" stdDeviation="14" flood-color="#001b24" flood-opacity="0.42"/>
    </filter>
  </defs>
  <rect width="256" height="256" rx="56" fill="#04191f"/>
  <rect x="14" y="14" width="228" height="228" rx="48" fill="url(#bg)" filter="url(#shadow)"/>
  <path d="M50 164h156v38H50z" fill="#f7f2ff" opacity="0.96"/>
  <path d="M62 164v-54l28 20V96l31 23V88h44v76z" fill="#f7f2ff"/>
  <path d="M76 178h30M120 178h30M164 178h28" stroke="#0e7490" stroke-width="10" stroke-linecap="round"/>
  <path d="M71 75h32m24 0h58" stroke="#cffafe" stroke-width="14" stroke-linecap="round" opacity="0.7"/>
  <path d="M70 129c24 23 45 25 66 7 18-16 33-18 52 7" fill="none" stroke="url(#line)" stroke-width="14" stroke-linecap="round" stroke-linejoin="round"/>
  <circle cx="188" cy="143" r="17" fill="#98f3ea" stroke="#f7f2ff" stroke-width="8"/>
  <path d="M202 61v58" stroke="#083344" stroke-width="18" stroke-linecap="round" opacity="0.3"/>
</svg>
